<svg height="512pt" viewBox="-40 0 512 512" width="512pt" xmlns="http://www.w3.org/2000/svg"><path d="m402 0h-304c-16.542969 0-30 13.457031-30 30v21.875h-38c-16.542969 0-30 13.457031-30 30v160.0625c0 5.523438 4.476562 10 10 10s10-4.476562 10-10v-160.0625c0-5.515625 4.484375-10 10-10h304c5.515625 0 10 4.484375 10 10v400.125c0 5.515625-4.484375 10-10 10h-304c-5.515625 0-10-4.484375-10-10v-160.0625c0-5.523438-4.476562-10-10-10s-10 4.476562-10 10v160.0625c0 16.542969 13.457031 30 30 30h304c16.542969 0 30-13.457031 30-30v-21.875h38c16.542969 0 30-13.457031 30-30v-400.125c0-16.542969-13.457031-30-30-30zm10 430.125c0 5.515625-4.484375 10-10 10h-38v-358.25c0-16.542969-13.457031-30-30-30h-246v-21.875c0-5.515625 4.484375-10 10-10h304c5.515625 0 10 4.484375 10 10zm0 0"/><path d="m10 291.941406c2.628906 0 5.210938-1.070312 7.070312-2.929687 1.859376-1.863281 2.929688-4.441407 2.929688-7.070313 0-2.632812-1.070312-5.210937-2.929688-7.070312-1.859374-1.871094-4.441406-2.929688-7.070312-2.929688s-5.210938 1.058594-7.070312 2.929688c-1.859376 1.859375-2.929688 4.4375-2.929688 7.070312 0 2.628906 1.070312 5.207032 2.929688 7.070313 1.859374 1.859375 4.441406 2.929687 7.070312 2.929687zm0 0"/><path d="m66 358.28125v40c0 5.523438 4.476562 10 10 10h212c5.523438 0 10-4.476562 10-10v-40c0-5.519531-4.476562-10-10-10h-212c-5.523438 0-10 4.480469-10 10zm20 10h192v20h-192zm0 0"/><path d="m125.082031 432.78125c-5.523437 0-10 4.480469-10 10 0 5.523438 4.476563 10 10 10h114c5.523438 0 10-4.476562 10-10 0-5.519531-4.476562-10-10-10zm0 0"/><path d="m182.082031 326.9375c59.507813 0 107.921875-48.414062 107.921875-107.921875s-48.414062-107.921875-107.921875-107.921875c-59.507812 0-107.921875 48.414062-107.921875 107.921875s48.414063 107.921875 107.921875 107.921875zm-54.445312-38.933594c10.617187-20.082031 31.300781-32.71875 54.445312-32.71875 23.140625 0 43.828125 12.636719 54.445313 32.71875-14.984375 11.851563-33.902344 18.933594-54.445313 18.933594s-39.460937-7.082031-54.445312-18.933594zm33.394531-73.765625v-7.761719c0-11.605468 9.445312-21.046874 21.050781-21.046874s21.046875 9.441406 21.046875 21.046874v7.761719c0 11.605469-9.441406 21.046875-21.046875 21.046875s-21.050781-9.441406-21.050781-21.046875zm21.050781-83.144531c48.480469 0 87.921875 39.441406 87.921875 87.921875 0 20.492187-7.050781 39.371094-18.851562 54.339844-9.152344-14.597657-22.546875-25.734375-38.21875-32.085938 6.339844-7.226562 10.195312-16.683593 10.195312-27.03125v-7.761719c0-22.636718-18.414062-41.050781-41.046875-41.050781-22.632812 0-41.050781 18.414063-41.050781 41.050781v7.761719c0 10.347657 3.859375 19.804688 10.199219 27.03125-15.675781 6.351563-29.066407 17.488281-38.21875 32.085938-11.800781-14.96875-18.851563-33.847657-18.851563-54.339844 0-48.480469 39.441406-87.921875 87.921875-87.921875zm0 0"/></svg>